<?xml version="1.0" standalone="no"?><!DOCTYPE svg PUBLIC "-//W3C//DTD SVG 1.1//EN" "http://www.w3.org/Graphics/SVG/1.1/DTD/svg11.dtd"><svg t="1728890756472" class="icon" viewBox="0 0 1024 1024" version="1.1" xmlns="http://www.w3.org/2000/svg" p-id="5145" xmlns:xlink="http://www.w3.org/1999/xlink" width="20" height="20"><path d="M974.539875 323.995c-0.511999-2.150396-1.638397-4.403191-2.662395-6.553587a110.796578 110.796578 0 0 1-6.041588-14.233571l-0.511999-0.511999c-3.891192-9.215982-7.679985-18.534363-13.721572-28.364744-15.257569-27.852744-61.644677-74.342251-140.902118-75.366249-40.959918 0.511999-97.689405 11.980776-133.734133 66.559867a32.563135 32.563135 0 0 0-4.91519 8.191984L508.723207 618.496811l-159.436482-344.063312a47.206306 47.206306 0 0 0-63.385473-22.937554 47.718305 47.718305 0 0 0-23.551953 63.283073l167.218866 359.935281 0.511999 0.511999c21.811156 40.447919 49.151902 61.235078 82.431835 61.235077 31.743937-1.126398 57.958284-22.425555 76.492647-63.385473l168.242864-354.405691c0-0.614399 0.511999-0.614399 0.511998-1.126398 4.403191-7.167986 15.359969-23.551953 52.940695-23.551953h0.614398c38.707123 0.614399 55.705489 22.527955 57.855885 25.702349a11.878376 11.878376 0 0 0 2.764794 4.403191c1.638397 2.150396 3.788792 7.679985 5.939188 13.107174 2.252795 5.427189 4.91519 11.980776 8.191984 18.534363 14.745571 45.363109 22.425555 90.11182 22.425555 133.324533 0 107.519785-37.683125 198.758002-114.175772 279.039442-81.305437 78.131044-173.055654 115.711769-280.677838 115.711768-110.898978 0-202.649195-37.580725-279.551441-115.199769-79.257441-75.878248-116.940566-167.628465-116.940566-278.527443 0-110.796578 37.683125-202.546795 115.711768-280.677839A363.212074 363.212074 0 0 1 456.90891 98.408251c42.086316-3.276793 58.982282-3.276793 107.110186 0 5.427189 0.614399 55.705489 7.679985 97.177406 22.937554a47.308705 47.308705 0 0 0 36.556726-1.638396 45.567909 45.567909 0 0 0 24.575951-26.726347L722.943578 90.830666V90.113868a47.308705 47.308705 0 0 0-28.979142-58.982282C642.559739 12.699623 580.198264 2.869242 569.958284 2.869242a659.147482 659.147482 0 0 0-122.879754 0C336.589151 16.488415 238.797346 64.616319 164.557495 142.644963 67.994488 238.79837 21.607381 352.359743 21.607381 489.985068c0 137.625325 46.899106 251.289097 143.052514 347.340105 95.02701 95.02701 211.967576 143.154914 347.340105 143.154914 131.583737 0 248.524303-48.127904 348.466503-143.666913 94.412611-98.815802 142.540515-215.14197 142.540515-346.828106a543.742913 543.742913 0 0 0-28.467143-165.990068z" fill="#4D5761" p-id="5146"></path></svg>